# xmcd
#
# Track frame offsets:
#   150
#   10765
#   24306
#   35736
#   47004
#   61072
#   74019
#   80687
#   97556
#   108064
#   119318
#   127649
#   141154
#   155427
#   171025
#   187461
#
# Disc length: 2749 seconds
#
# Revision: 0
# Processed by: cddbd v1.5.2PL0 Copyright (c) Steve Scherf et al.
# Submitted via: GXTranscoder 2.0.1939
#
DISCID=ca0abb10
DTITLE=Gnarls Barkley - St. Elsewhere
DYEAR=2006
DGENRE=Black Music
TTITLE0=go-go gadget gospel
TTITLE1=crazy
TTITLE2=st. elsewhere
TTITLE3=gone daddy gone
TTITLE4=smiley faces
TTITLE5=the boogie monster
TTITLE6=feng shui
TTITLE7=just a thought
TTITLE8=transformer
TTITLE9=who cares?
TTITLE10=online
TTITLE11=necromancer
TTITLE12=storm coming
TTITLE13=the last time
TTITLE14=add track 1
TTITLE15=add track 2
EXTD=
EXTT0=
EXTT1=
EXTT2=
EXTT3=
EXTT4=
EXTT5=
EXTT6=
EXTT7=
EXTT8=
EXTT9=
EXTT10=
EXTT11=
EXTT12=
EXTT13=
EXTT14=
EXTT15=
PLAYORDER=
